<svg width="1440" height="1024" viewBox="0 0 1440 1024" fill="none" xmlns="http://www.w3.org/2000/svg">
<rect width="1440" height="1024" fill="black"/>
<g id="Desktop - 1">
<g id="nahang">
<path id="Rectangle 1" d="M523.029 335.189C572.029 295.189 641.251 283.788 719.029 295.189C816.162 309.427 849.029 443.189 844.029 455.189C839.029 467.189 795.358 372.681 699.029 376.189C624.73 378.894 615.17 483 542.772 483C527.934 483 513.701 481.539 504.029 474.189C494.867 467.226 499.546 447.035 495.772 434C484.089 393.654 474.029 375.189 523.029 335.189Z" fill="#545454"/>
<path id="Ellipse 1" d="M589.73 355.34C596.196 361.601 590.944 377.513 578 390.881C565.056 404.249 548.439 416.741 541.973 410.48C535.507 404.219 541.374 366.793 554.318 353.425C567.262 340.057 583.264 349.079 589.73 355.34Z" fill="url(#paint0_linear)"/>
<path id="Vector 1" d="M617.772 295L587.772 301C587.772 301 584.093 281.534 587.772 270C592.977 253.68 617.772 238 617.772 238C617.772 238 608.939 257.146 609.772 270C610.435 280.229 617.772 295 617.772 295Z" fill="#545454"/>
<path id="Vector 3" d="M598.772 298.238L583.599 303C583.599 303 581.738 287.551 583.599 278.397C586.231 265.445 598.772 253 598.772 253C598.772 253 594.304 268.195 594.726 278.397C595.061 286.515 598.772 298.238 598.772 298.238Z" fill="url(#paint1_linear)"/>
<path id="Ellipse 2" d="M831.783 431.504C804.276 440.671 790.291 468.399 799.022 494.597C799.022 494.597 799.33 478.333 806.308 473.495C815.019 467.455 823.785 486.269 831.783 479.312C837.858 474.029 837.199 454.236 837.199 454.236C837.199 454.236 845.569 480.799 858.275 479.312C868.209 478.15 866.096 463.571 875.597 460.446C889.519 455.867 908.889 477.766 908.889 477.766C900.158 451.568 859.291 422.336 831.783 431.504Z" fill="#545454"/>
<path id="Ellipse 3" d="M815.772 415C815.772 426.529 798.079 386 699.772 386C647.981 386 602.772 493 568.772 493C534.772 493 531.772 495 516.772 481C516.772 469.471 601.465 369 699.772 369C798.079 369 815.772 403.471 815.772 415Z" fill="url(#paint2_linear)"/>
<path id="Ellipse 4" d="M803.272 403.5C802.757 408.947 781.574 391.746 716.566 385.602C651.559 379.458 579.852 501 591.312 475C602.772 449 600.606 420.601 591.312 413.049C591.827 407.602 652.318 365.427 717.325 371.571C782.333 377.715 803.787 398.053 803.272 403.5Z" fill="url(#paint3_linear)"/>
<path id="Vector 2" d="M666.772 372L627.772 384C627.772 384 653.708 414.354 666.772 417C681.635 420.01 704.772 409 704.772 409C704.772 409 685.85 402.218 677.772 393C671.67 386.038 666.772 372 666.772 372Z" fill="#545454"/>
<path id="Ellipse 5" d="M764.762 313.459C766.748 321.456 676.464 308.424 617.772 323C559.772 323 498.977 374.929 496.991 366.932C496.991 373 543.492 308.507 602.184 293.931C660.876 279.354 762.776 305.463 764.762 313.459Z" fill="url(#paint4_linear)"/>
</g>
<g id="water">
<path id="Vector 5" d="M256.5 765.5C158.961 774.217 0 632 0 632V940H1440V584C1440 584 1242.39 700.341 1086.5 692.5C909.32 683.588 835.307 561.165 658 567C494.586 572.378 419.355 750.946 256.5 765.5Z" fill="#6166D6"/>
<path id="Vector 4" d="M240 632.027C142.461 640.744 0 754.989 0 754.989V1024H1440V688.74C1440 688.74 1227.62 604.234 1071.73 596.393C894.553 587.481 822.151 733.094 644.843 738.929C481.429 744.306 402.855 617.473 240 632.027Z" fill="#070D9B"/>
</g>
<g id="up-big">
<path id="Ellipse 6" d="M1183.5 430C1183.5 481 1164.92 453 1142 453C1119.08 453 1086 493.703 1086 481C1086 468.297 1119.08 407 1142 407C1164.92 407 1183.5 417.297 1183.5 430Z" fill="#7F82C7"/>
<path id="Ellipse 7" d="M1159 420.122C1159 438.133 1151.19 428.245 1141.55 428.245C1131.91 428.245 1118 442.618 1118 438.133C1118 433.647 1131.91 412 1141.55 412C1151.19 412 1159 415.636 1159 420.122Z" fill="#F2F0F0"/>
<ellipse id="Ellipse 8" cx="1171.5" cy="429" rx="5.5" ry="6" fill="#F2F0F0"/>
</g>
<g id="fall-up">
<path id="Ellipse 12" d="M269 445.693C269 520.402 289.009 479.385 313.692 479.385C338.375 479.385 374 539.01 374 520.402C374 501.794 338.375 412 313.692 412C289.009 412 269 427.085 269 445.693Z" fill="#3539A2"/>
<path id="Ellipse 14" d="M295 431.033C295 457.715 303.575 443.066 314.154 443.066C324.732 443.066 340 464.361 340 457.715C340 451.069 324.732 419 314.154 419C303.575 419 295 424.387 295 431.033Z" fill="#F2F0F0"/>
<ellipse id="Ellipse 16" rx="6" ry="8.5" transform="matrix(-1 0 0 1 282 444.5)" fill="#F2F0F0"/>
</g>
<g id="fall-left">
<path id="Ellipse 18" d="M263.031 559.864C309.664 618.232 299.694 573.697 318.978 558.29C338.262 542.883 403.312 567.229 391.697 552.691C380.082 538.153 296.201 490.237 276.917 505.644C257.633 521.051 251.416 545.326 263.031 559.864Z" fill="#4D53DC"/>
<path id="Ellipse 19" d="M274.193 532.181C290.848 553.027 288.404 536.23 296.669 529.627C304.933 523.024 330.153 530.13 326.005 524.938C321.857 519.746 289.911 504.222 281.647 510.825C273.382 517.428 270.045 526.989 274.193 532.181Z" fill="#F2F0F0"/>
<ellipse id="Ellipse 20" rx="6" ry="8.5" transform="matrix(-0.781267 0.624197 0.624197 0.781267 272.443 550.817)" fill="#F2F0F0"/>
</g>
<g id="up-small">
<path id="Ellipse 9" d="M969 474.635C969 502.651 985.96 487.269 1006.88 487.269C1027.8 487.269 1058 509.629 1058 502.651C1058 495.673 1027.8 462 1006.88 462C985.96 462 969 467.657 969 474.635Z" fill="#6166D6"/>
<path id="Ellipse 10" d="M991 469.512C991 479.518 998.242 474.025 1007.17 474.025C1016.11 474.025 1029 482.01 1029 479.518C1029 477.026 1016.11 465 1007.17 465C998.242 465 991 467.02 991 469.512Z" fill="#F2F0F0"/>
<ellipse id="Ellipse 11" rx="5" ry="3" transform="matrix(-1 0 0 1 980 474)" fill="#F2F0F0"/>
</g>
<g id="fall-right">
<path id="Ellipse 13" d="M501 511.651C501 553.008 482.706 530.302 460.138 530.302C437.571 530.302 405 563.309 405 553.008C405 542.707 437.571 493 460.138 493C482.706 493 501 501.35 501 511.651Z" fill="#070D9B"/>
<path id="Ellipse 15" d="M477 504.618C477 519.293 469.187 511.236 459.549 511.236C449.911 511.236 436 522.948 436 519.293C436 515.638 449.911 498 459.549 498C469.187 498 477 500.963 477 504.618Z" fill="#F2F0F0"/>
<ellipse id="Ellipse 17" cx="489.5" cy="510.5" rx="5.5" ry="4.5" fill="#F2F0F0"/>
</g>
<path id="left-cloud" d="M288 169H70.225H7C7 169 16.5127 158.948 24.0607 154.682C37.304 147.198 51.7546 158.7 62.1964 147.523C70.8483 138.262 66.4195 128.004 70.225 115.819C73.0075 106.91 72.0958 100.251 78.2536 93.3201C92.6082 77.1633 114.662 120.127 131.443 106.615C139.836 99.8569 136.339 89.1315 144.489 82.0703C163.031 66.0058 188.605 79.8345 204.704 98.4336C214.718 110.003 203.643 136.194 218.754 135.251C229.265 134.595 227.387 117.269 237.821 115.819C250.015 114.125 261.661 122.775 262.911 135.251C263.731 143.442 253.893 146.51 254.882 154.682C256.602 168.891 288 169 288 169Z" fill="#A2D4EA"/>
<ellipse id="sun" cx="272" cy="135" rx="112" ry="92" fill="#FAFE44"/>
<path id="right-cloud" d="M797 215H363H237C237 215 255.958 201.312 271 195.503C297.392 185.312 326.191 200.975 347 185.755C364.242 173.144 355.416 159.176 363 142.584C368.545 130.452 366.728 121.384 379 111.946C407.607 89.9458 451.557 148.45 485 130.05C501.727 120.848 494.758 106.243 511 96.6277C547.951 74.7526 598.917 93.5831 631 118.91C650.957 134.663 628.887 170.328 659 169.044C679.948 168.15 676.206 144.558 697 142.584C721.301 140.277 744.509 152.055 747 169.044C748.635 180.197 729.029 184.376 731 195.503C734.427 214.852 797 215 797 215Z" fill="#A2D4EA"/>
</g>
<defs>
<linearGradient id="paint0_linear" x1="545.164" y1="362.878" x2="576.105" y2="392.838" gradientUnits="userSpaceOnUse">
<stop offset="0.619792" stop-color="#E5E5E5"/>
<stop offset="1" stop-color="#E5E5E5" stop-opacity="0"/>
</linearGradient>
<linearGradient id="paint1_linear" x1="590.772" y1="253" x2="590.772" y2="303" gradientUnits="userSpaceOnUse">
<stop stop-color="#F2F0F0"/>
<stop offset="1" stop-color="#959494"/>
</linearGradient>
<linearGradient id="paint2_linear" x1="719.772" y1="421" x2="505.772" y2="476" gradientUnits="userSpaceOnUse">
<stop stop-color="#DAD8D8"/>
<stop offset="0.587964" stop-color="#DEDCDC"/>
<stop offset="1" stop-color="#F2F0F0"/>
</linearGradient>
<linearGradient id="paint3_linear" x1="700.908" y1="370.019" x2="689.751" y2="488.058" gradientUnits="userSpaceOnUse">
<stop stop-color="#A9A7A7"/>
<stop offset="0.536458" stop-color="#C4C4C4" stop-opacity="0"/>
</linearGradient>
<linearGradient id="paint4_linear" x1="506.35" y1="355.301" x2="728.36" y2="299.341" gradientUnits="userSpaceOnUse">
<stop stop-color="#C4C4C4" stop-opacity="0"/>
<stop offset="0.483188" stop-color="#C4C4C4"/>
<stop offset="0.869792" stop-color="#F2F0F0" stop-opacity="0"/>
</linearGradient>
</defs>
</svg>
